<svg width="32" height="32" viewBox="0 0 32 32" fill="none" xmlns="http://www.w3.org/2000/svg">
<path d="M27 11.348C28.1787 11.7273 29 12.8523 29 14.1443V19.8584C29 21.3739 27.8701 22.659 26.3596 22.7823C25.9077 22.8192 25.4545 22.8514 25 22.879V27L21 23C19.195 23 17.4075 22.9264 15.6403 22.7822C15.2426 22.7497 14.8712 22.6367 14.5399 22.4601M27 11.348C26.7981 11.2831 26.5857 11.24 26.3652 11.2217C24.5962 11.0749 22.8068 11 21 11C19.1931 11 17.4037 11.0749 15.6348 11.2217C14.1267 11.3469 13 12.631 13 14.1443V19.8583C13 20.9747 13.6131 21.9661 14.5399 22.4601M27 11.348V8.84974C27 6.68786 25.4643 4.8142 23.3204 4.53588C20.5971 4.18234 17.82 4 15.0004 4C12.1804 4 9.4031 4.18238 6.67951 4.53599C4.53564 4.81433 3 6.68797 3 8.84984V17.1502C3 19.3121 4.53564 21.1857 6.67953 21.464C7.44881 21.5639 8.22239 21.6501 9 21.7224V28L14.5399 22.4601" stroke="#09090B" stroke-width="1.5" stroke-linecap="round" stroke-linejoin="round"/>
</svg>
