<svg width="32" height="32" viewBox="0 0 32 32" fill="none" xmlns="http://www.w3.org/2000/svg">
<path d="M12.7914 5.25352C12.9119 4.53024 13.5377 4.00012 14.271 4.00012H17.7296C18.4628 4.00012 19.0886 4.53024 19.2092 5.25352L19.4938 6.96159C19.577 7.46031 19.9103 7.87574 20.3526 8.1206C20.4515 8.17535 20.5493 8.2319 20.6459 8.29022C21.0792 8.55191 21.6063 8.63327 22.0804 8.45567L23.7029 7.84782C24.3896 7.59058 25.1616 7.86747 25.5282 8.50249L27.2575 11.4977C27.6241 12.1328 27.4779 12.9398 26.9118 13.4058L25.5727 14.5082C25.1827 14.8293 24.9893 15.3251 24.9987 15.8302C24.9997 15.8867 25.0003 15.9433 25.0003 16.0001C25.0003 16.0569 24.9997 16.1135 24.9987 16.1701C24.9893 16.6751 25.1827 17.1709 25.5727 17.492L26.9118 18.5944C27.4779 19.0605 27.6241 19.8675 27.2575 20.5025L25.5282 23.4977C25.1616 24.1328 24.3896 24.4096 23.7029 24.1524L22.0804 23.5446C21.6064 23.367 21.0793 23.4483 20.6459 23.71C20.5493 23.7683 20.4515 23.8249 20.3526 23.8796C19.9103 24.1245 19.577 24.5399 19.4938 25.0387L19.2092 26.7467C19.0886 27.47 18.4628 28.0001 17.7296 28.0001H14.271C13.5377 28.0001 12.9119 27.47 12.7914 26.7467L12.5067 25.0387C12.4236 24.5399 12.0903 24.1245 11.6479 23.8796C11.549 23.8249 11.4513 23.7683 11.3547 23.71C10.9213 23.4483 10.3942 23.367 9.92011 23.5446L8.29762 24.1524C7.61097 24.4097 6.83898 24.1328 6.47235 23.4978L4.74304 20.5025C4.37641 19.8675 4.52261 19.0605 5.08872 18.5944L6.42785 17.492C6.81787 17.171 7.0112 16.6752 7.00184 16.1701C7.0008 16.1136 7.00027 16.0569 7.00027 16.0001C7.00027 15.9434 7.0008 15.8867 7.00184 15.8302C7.0112 15.3251 6.81786 14.8293 6.42785 14.5082L5.08872 13.4058C4.52261 12.9398 4.37641 12.1328 4.74304 11.4978L6.47235 8.50251C6.83898 7.86749 7.61097 7.5906 8.29762 7.84784L9.92009 8.45568C10.3942 8.63329 10.9213 8.55192 11.3547 8.29023C11.4512 8.23191 11.549 8.17535 11.6479 8.1206C12.0903 7.87574 12.4236 7.46031 12.5067 6.96159L12.7914 5.25352Z" stroke="#09090B" stroke-width="1.5" stroke-linecap="round" stroke-linejoin="round"/>
<path d="M20 16C20 18.2092 18.2091 20 16 20C13.7908 20 12 18.2092 12 16C12 13.7909 13.7908 12 16 12C18.2091 12 20 13.7909 20 16Z" stroke="#09090B" stroke-width="1.5" stroke-linecap="round" stroke-linejoin="round"/>
</svg>
