<svg width="56" height="56" viewBox="0 0 56 56" fill="none" xmlns="http://www.w3.org/2000/svg">
<path d="M8 0.5H48C52.1421 0.5 55.5 3.85786 55.5 8V48C55.5 52.1421 52.1421 55.5 48 55.5H8C3.85786 55.5 0.5 52.1421 0.5 48V8C0.5 3.85786 3.85786 0.5 8 0.5Z" stroke="#E4E4E7"/>
<path fill-rule="evenodd" clip-rule="evenodd" d="M28 19.25C28 14.4175 31.9175 10.5 36.75 10.5C37.6319 10.5 38.4855 10.6309 39.2912 10.8751C39.7117 11.0025 40.0344 11.3413 40.1412 11.7675C40.248 12.1936 40.1232 12.6446 39.8125 12.9552L34.2814 18.4864C34.3842 19.279 34.7397 20.043 35.3484 20.6517C35.957 21.2603 36.721 21.6158 37.5136 21.7186L43.0448 16.1875C43.3554 15.8768 43.8064 15.752 44.2325 15.8588C44.6587 15.9656 44.9975 16.2883 45.1249 16.7088C45.3691 17.5145 45.5 18.3681 45.5 19.25C45.5 24.0825 41.5825 28 36.75 28C36.4992 28 36.2505 27.9894 36.0045 27.9686C34.3091 27.8253 32.8896 28.1361 32.1574 29.0252L20.2388 43.4978C19.1947 44.7656 17.6385 45.5 15.9961 45.5C12.9607 45.5 10.5 43.0393 10.5 40.0039C10.5 38.3615 11.2344 36.8053 12.5022 35.7612L26.9748 23.8426C27.8639 23.1104 28.1747 21.6909 28.0314 19.9955C28.0106 19.7495 28 19.5008 28 19.25ZM14.8621 39.8751C14.8621 39.1847 15.4217 38.6251 16.1121 38.6251H16.1246C16.8149 38.6251 17.3746 39.1847 17.3746 39.8751V39.8876C17.3746 40.5779 16.8149 41.1376 16.1246 41.1376H16.1121C15.4217 41.1376 14.8621 40.5779 14.8621 39.8876V39.8751Z" fill="#B1460B"/>
<path d="M24.7933 22.4005L21.125 18.7323V16.125C21.125 15.6859 20.8947 15.2791 20.5181 15.0532L14.2681 11.3032C13.7763 11.0081 13.1467 11.0856 12.7411 11.4911L11.4911 12.7411C11.0856 13.1467 11.0081 13.7763 11.3032 14.2681L15.0532 20.5181C15.2791 20.8947 15.6859 21.125 16.125 21.125H18.7323L22.169 24.5617L24.7933 22.4005Z" fill="#B1460B"/>
<path fill-rule="evenodd" clip-rule="evenodd" d="M28.9265 36.8812L35.8977 43.8524C38.0944 46.0491 41.656 46.0491 43.8527 43.8524C46.0494 41.6557 46.0494 38.0941 43.8527 35.8974L38.3433 30.388C37.8228 30.4618 37.291 30.4999 36.7502 30.4999C36.429 30.4999 36.1101 30.4864 35.7941 30.4597C35.1369 30.4041 34.6566 30.4494 34.3482 30.5294C34.1755 30.5743 34.0957 30.6188 34.0698 30.6357L28.9265 36.8812ZM34.6163 34.6161C35.1044 34.128 35.8959 34.128 36.384 34.6161L39.509 37.7411C39.9972 38.2293 39.9972 39.0207 39.509 39.5089C39.0209 39.997 38.2294 39.997 37.7413 39.5089L34.6163 36.3839C34.1281 35.8957 34.1281 35.1043 34.6163 34.6161Z" fill="#B1460B"/>
</svg>
