<svg width="32" height="32" viewBox="0 0 32 32" fill="none" xmlns="http://www.w3.org/2000/svg">
<path d="M15.2258 20.2258L23 28C24.3807 29.3807 26.6193 29.3807 28 28C29.3807 26.6193 29.3807 24.3807 28 23L20.1644 15.1644M15.2258 20.2258L18.554 16.1845C18.9753 15.6728 19.5389 15.3509 20.1644 15.1644M15.2258 20.2258L9.01909 27.7625C8.37382 28.5461 7.41196 29 6.39691 29C4.52085 29 3 27.4791 3 25.6031C3 24.588 3.45393 23.6262 4.23747 22.9809L13.3528 15.4741M20.1644 15.1644C20.8969 14.9459 21.7144 14.9131 22.4879 14.9784C22.6567 14.9927 22.8275 15 23 15C26.3137 15 29 12.3137 29 9C29 8.11964 28.8104 7.28357 28.4698 6.53039L24.1016 10.8986C22.614 10.5571 21.443 9.38618 21.1016 7.89862L25.4699 3.53032C24.7166 3.18965 23.8805 3 23 3C19.6863 3 17 5.68629 17 9C17 9.17251 17.0073 9.34332 17.0216 9.51215C17.1428 10.9461 16.9264 12.5312 15.8155 13.446L15.6794 13.5581M13.3528 15.4741L7.87868 10H6L3 5L5 3L10 6V7.87868L15.6794 13.5581M13.3528 15.4741L15.6794 13.5581M24.5 24.5L21 21M6.48964 25.5001H6.49965V25.5101H6.48964V25.5001Z" stroke="#09090B" stroke-width="1.5" stroke-linecap="round" stroke-linejoin="round"/>
</svg>
